<svg width="320" height="240" viewBox="0 0 320 240" fill="none" xmlns="http://www.w3.org/2000/svg" role="img" aria-label="扁平带手柄水杯">
  <defs>
    <linearGradient id="cupBody" x1="54" y1="50" x2="235" y2="207" gradientUnits="userSpaceOnUse">
      <stop stop-color="#FFFFFF" stop-opacity=".9"/>
      <stop offset=".48" stop-color="#EEF9F5" stop-opacity=".58"/>
      <stop offset="1" stop-color="#FFFFFF" stop-opacity=".82"/>
    </linearGradient>
    <linearGradient id="cupLine" x1="52" y1="45" x2="286" y2="198" gradientUnits="userSpaceOnUse">
      <stop stop-color="#18313A"/>
      <stop offset=".5" stop-color="#087D8E"/>
      <stop offset="1" stop-color="#18313A"/>
    </linearGradient>
    <filter id="softCupShadow" x="28" y="32" width="274" height="190" filterUnits="userSpaceOnUse" color-interpolation-filters="sRGB">
      <feDropShadow dx="0" dy="12" stdDeviation="10" flood-color="#087D8E" flood-opacity=".14"/>
    </filter>
  </defs>

  <ellipse cx="147" cy="208" rx="88" ry="13" fill="#17202A" fill-opacity=".09"/>

  <g filter="url(#softCupShadow)">
    <path d="M226 93H250C275.4 93 293 111.2 293 134C293 156.8 275.4 175 250 175H226V151H249.2C261 151 268.5 144.2 268.5 134C268.5 123.8 261 117 249.2 117H226V93Z" fill="#F9FFFD" fill-opacity=".86" stroke="url(#cupLine)" stroke-width="7" stroke-linejoin="round"/>
    <path d="M58 76C58 61.1 70.1 49 85 49H212C226.9 49 239 61.1 239 76V158C239 184 218 205 192 205H105C79 205 58 184 58 158V76Z" fill="url(#cupBody)" stroke="url(#cupLine)" stroke-width="7" stroke-linejoin="round"/>
    <path d="M84 45H213C230.1 45 244 58.9 244 76C244 93.1 230.1 107 213 107H84C66.9 107 53 93.1 53 76C53 58.9 66.9 45 84 45Z" fill="#FFFFFF" fill-opacity=".74" stroke="#18313A" stroke-opacity=".76" stroke-width="7"/>
    <path d="M84 76C109.2 64.2 187.8 64.2 213 76" stroke="#FFFFFF" stroke-width="7" stroke-linecap="round"/>
    <path d="M89 105C117.4 116 179.6 116 208 105" stroke="#18313A" stroke-opacity=".1" stroke-width="5" stroke-linecap="round"/>
    <path d="M98 178C121.6 190.5 175.4 190.5 199 178" stroke="#18313A" stroke-opacity=".12" stroke-width="7" stroke-linecap="round"/>
  </g>

  <path d="M86 116C89.4 137.8 93.3 157 98 174" stroke="#FFFFFF" stroke-opacity=".72" stroke-width="10" stroke-linecap="round"/>
  <path d="M110 115C112.2 132.5 114.8 148.2 118 162" stroke="#FFFFFF" stroke-opacity=".35" stroke-width="5" stroke-linecap="round"/>
  <path d="M223 116C220.7 139.8 217.4 160.6 213 178" stroke="#18313A" stroke-opacity=".08" stroke-width="7" stroke-linecap="round"/>
</svg>
